<svg width="105" height="143" viewBox="0 0 105 143" fill="none" xmlns="http://www.w3.org/2000/svg">
<circle cx="71.5" cy="71.5" r="71.5" fill="url(#paint0_linear_18_168)"/>
<rect x="39.0669" y="71.3652" width="45.7021" height="45.7021" transform="rotate(-45 39.0669 71.3652)" fill="#0B0E11"/>
<mask id="path-3-inside-1_18_168" fill="white">
<path d="M98.4219 112.903C92.3674 116.84 85.5232 119.401 78.3716 120.406C71.22 121.411 63.9351 120.835 57.0301 118.719C50.1252 116.603 43.7683 112.998 38.4076 108.159C33.0468 103.32 28.8125 97.3642 26.0032 90.7112C23.1938 84.0581 21.8778 76.8699 22.1478 69.6531C22.4178 62.4363 24.2673 55.3665 27.5659 48.942C30.8645 42.5175 35.532 36.8946 41.2394 32.4696C46.9468 28.0446 53.5552 24.9251 60.599 23.3311L60.8455 24.4206C53.9611 25.9786 47.5022 29.0275 41.9239 33.3525C36.3456 37.6774 33.2612 44.2127 30.0373 50.4918C26.8133 56.771 25.0617 62.1014 24.3246 69.6531C24.3246 77.2122 24.2865 83.774 27.0323 90.2766C29.7781 96.7791 33.9166 102.6 39.1561 107.33C44.3956 112.06 50.6087 115.583 57.3574 117.651C64.1062 119.719 71.2263 120.282 78.2162 119.299C85.206 118.317 91.8954 115.814 97.8129 111.966L98.4219 112.903Z"/>
</mask>
<path d="M98.4219 112.903L101.148 117.095L105.339 114.369L102.614 110.177L98.4219 112.903ZM60.599 23.3311L65.4756 22.2274L64.372 17.3507L59.4953 18.4544L60.599 23.3311ZM60.8455 24.4206L61.9492 29.2973L66.8258 28.1937L65.7222 23.317L60.8455 24.4206ZM24.3246 69.6531L19.3483 69.1674L19.3246 69.4097V69.6531H24.3246ZM97.8129 111.966L102.005 109.241L99.279 105.049L95.0873 107.775L97.8129 111.966ZM95.6963 108.711C90.2548 112.249 84.1035 114.551 77.6759 115.454L79.0673 125.357C86.943 124.251 94.4801 121.43 101.148 117.095L95.6963 108.711ZM77.6759 115.454C71.2483 116.358 64.7009 115.84 58.4951 113.938L55.5652 123.499C63.1692 125.83 71.1917 126.464 79.0673 125.357L77.6759 115.454ZM58.4951 113.938C52.2892 112.037 46.5759 108.797 41.7579 104.448L35.0572 111.871C40.9607 117.2 47.9612 121.169 55.5652 123.499L58.4951 113.938ZM41.7579 104.448C36.9398 100.099 33.1343 94.7456 30.6094 88.7661L21.397 92.6562C24.4907 99.9828 29.1537 106.542 35.0572 111.871L41.7579 104.448ZM30.6094 88.7661C28.0844 82.7867 26.9016 76.3262 27.1443 69.84L17.1513 69.4662C16.854 77.4136 18.3032 85.3296 21.397 92.6562L30.6094 88.7661ZM27.1443 69.84C27.387 63.3539 29.0492 56.9999 32.0139 51.2258L23.118 46.6582C19.4854 53.7332 17.4487 61.5187 17.1513 69.4662L27.1443 69.84ZM32.0139 51.2258C34.9785 45.4517 39.1735 40.3981 44.303 36.4211L38.1758 28.5181C31.8905 33.3911 26.7505 39.5833 23.118 46.6582L32.0139 51.2258ZM44.303 36.4211C49.4326 32.444 55.372 29.6404 61.7026 28.2077L59.4953 18.4544C51.7385 20.2098 44.461 23.6451 38.1758 28.5181L44.303 36.4211ZM55.7223 24.4347L55.9689 25.5243L65.7222 23.317L65.4756 22.2274L55.7223 24.4347ZM59.7419 19.544C52.1444 21.2633 45.0164 24.6281 38.8603 29.401L44.9875 37.3039C49.988 33.427 55.7779 30.6939 61.9492 29.2973L59.7419 19.544ZM38.8603 29.401C32.212 34.5555 28.6295 42.2867 25.5893 48.2081L34.4852 52.7756C37.8929 46.1386 40.4792 40.7993 44.9875 37.3039L38.8603 29.401ZM25.5893 48.2081C22.1092 54.986 20.153 60.9226 19.3483 69.1674L29.301 70.1388C29.9704 63.2802 31.5173 58.5561 34.4852 52.7756L25.5893 48.2081ZM19.3246 69.6531C19.3246 77.0143 19.2191 84.6267 22.4261 92.2216L31.6385 88.3316C29.354 82.9214 29.3246 77.4101 29.3246 69.6531H19.3246ZM22.4261 92.2216C25.4563 99.3977 30.0235 105.822 35.8058 111.042L42.5064 103.619C37.8097 99.3788 34.0999 94.1605 31.6385 88.3316L22.4261 92.2216ZM35.8058 111.042C41.588 116.261 48.4447 120.149 55.8925 122.431L58.8224 112.87C52.7727 111.016 47.2032 107.858 42.5064 103.619L35.8058 111.042ZM55.8925 122.431C63.3403 124.714 71.198 125.335 78.9119 124.251L77.5205 114.348C71.2547 115.229 64.8721 114.724 58.8224 112.87L55.8925 122.431ZM78.9119 124.251C86.6258 123.167 94.0081 120.405 100.539 116.158L95.0873 107.775C89.7827 111.224 83.7863 113.468 77.5205 114.348L78.9119 124.251ZM93.6211 114.692L94.2301 115.629L102.614 110.177L102.005 109.241L93.6211 114.692Z" fill="url(#paint1_linear_18_168)" mask="url(#path-3-inside-1_18_168)"/>
<defs>
<linearGradient id="paint0_linear_18_168" x1="119.781" y1="20.4549" x2="28.5631" y2="127.705" gradientUnits="userSpaceOnUse">
<stop stop-color="#1B1F22"/>
<stop offset="1" stop-color="#171B20"/>
</linearGradient>
<linearGradient id="paint1_linear_18_168" x1="66.8929" y1="59.5215" x2="33.3543" y2="98.7728" gradientUnits="userSpaceOnUse">
<stop stop-color="#1B1F22" stop-opacity="0"/>
<stop offset="1" stop-color="#1B2022"/>
</linearGradient>
</defs>
</svg>
