<svg width="35" height="31" viewBox="0 0 35 31" fill="none" xmlns="http://www.w3.org/2000/svg">
<path d="M14.4617 17.4083V23.2673L17.3912 24.9151V12.0142L12.2297 9.17773L9.34668 10.8052V14.3393L14.4617 17.4083Z" fill="#EFB90B"/>
<path d="M17.4377 24.9413L17.3912 24.9151M17.3912 24.9151L14.4617 23.2673V17.4083L9.34668 14.3393V10.8052L12.2297 9.17773L17.3912 12.0142V24.9151Z" stroke="#EFB90B"/>
<path d="M20.3674 17.4083V23.2673L17.4379 24.9151V12.0142L22.5994 9.17773L25.4824 10.8052V14.3393L20.3674 17.4083Z" fill="#EFB90B"/>
<path d="M17.3914 24.9413L17.4379 24.9151M17.4379 24.9151L20.3674 23.2673V17.4083L25.4824 14.3393V10.8052L22.5994 9.17773L17.4379 12.0142V24.9151Z" stroke="#EFB90B"/>
<path d="M9.34668 4.94629L17.3912 0.110273L17.4842 3.69078L12.4517 6.7299L9.34668 4.94629Z" fill="#EFB90B"/>
<path d="M25.48 4.94629L17.3912 0.110273L17.3425 3.69078L22.375 6.7299L25.48 4.94629Z" fill="#EFB90B"/>
<path d="M30.6084 13.9814L30.7742 23.3662L27.6269 21.6565L27.5113 15.7786L30.6084 13.9814Z" fill="#EFB90B"/>
<path d="M22.5415 27.9531L30.774 23.366L27.6976 21.5336L22.5493 24.3723L22.5415 27.9531Z" fill="#EFB90B"/>
<path d="M4.28369 13.9805L4.11784 23.3652L7.26516 21.6555L7.38083 15.7776L4.28369 13.9805Z" fill="#EFB90B"/>
<path d="M12.3501 27.9531L4.11758 23.366L7.19404 21.5336L12.3423 24.3723L12.3501 27.9531Z" fill="#EFB90B"/>
<path d="M4.18567 11.3163L4.15785 7.82286L7.25458 9.54929L7.06858 12.8973L4.18567 11.3163Z" fill="#EFB90B"/>
<path d="M7.16173 6.15491L4.13881 7.82887L7.25473 9.54942L10.0912 7.8915L7.16173 6.15491Z" fill="#EFB90B"/>
<path d="M30.682 11.3163L30.7098 7.82286L27.6131 9.54929L27.7991 12.8973L30.682 11.3163Z" fill="#EFB90B"/>
<path d="M27.7059 6.15491L30.7289 7.82887L27.6129 9.54942L24.7764 7.8915L27.7059 6.15491Z" fill="#EFB90B"/>
<path d="M14.4362 29.1663L17.4478 30.9371L17.501 27.3921L14.5085 25.8791L14.4362 29.1663Z" fill="#EFB90B"/>
<path d="M20.3947 29.1697L17.4335 30.9506L17.5015 27.3919L20.3555 25.7644L20.3947 29.1697Z" fill="#EFB90B"/>
<path d="M14.3687 7.87598L17.4474 5.94545L20.5067 7.87598L17.4872 9.60848L14.3687 7.87598Z" fill="#EFB90B"/>
<path d="M9.21436 16.8037L12.4256 18.5047L12.2834 22.1194L9.27321 20.3707L9.21436 16.8037Z" fill="#EFB90B"/>
<path d="M25.7686 16.6182L22.5573 18.3191L22.6995 21.9338L25.7097 20.1851L25.7686 16.6182Z" fill="#EFB90B"/>
</svg>
