<svg width="58" height="16" viewBox="0 0 58 16" fill="none" xmlns="http://www.w3.org/2000/svg">
<path d="M0.131348 0.120751H3.82133C4.75895 0.120751 5.44452 0.372798 5.88812 0.80632C6.32165 1.17935 6.5132 1.68345 6.5132 2.17746C6.5132 2.36902 6.5132 2.61099 6.45271 2.80254C6.33173 3.11508 6.14017 3.42762 5.88812 3.67967C5.76714 3.80065 5.63607 3.87122 5.51509 3.93171C5.94861 4.0527 6.33173 4.30475 6.64427 4.61729C6.89631 4.92983 7.0173 5.30286 7.0173 5.86744C7.0173 6.17998 6.9568 6.55301 6.82574 6.80506C6.70476 7.05711 6.45271 7.30916 6.20066 7.49063C5.88812 7.68219 5.57558 7.80317 5.26304 7.92415C4.89001 8.04514 4.44641 8.04514 4.01289 8.04514H0.19184V0.100586H0.131348V0.120751ZM3.50879 3.36713C3.82133 3.36713 4.13387 3.30664 4.44641 3.17557C4.69846 3.05459 4.81944 2.80254 4.81944 2.55049C4.81944 2.29845 4.69846 2.0464 4.5069 1.92541C4.25485 1.73386 3.94231 1.67337 3.62977 1.73386H1.87552V3.41754H3.49871V3.36713H3.50879ZM3.94231 6.5631C4.25485 6.5631 4.56739 6.5026 4.87993 6.37154C5.13198 6.25056 5.25296 5.99851 5.19247 5.68597C5.19247 5.43392 5.07149 5.18187 4.87993 5.06089C4.68837 4.93991 4.31534 4.80884 3.88182 4.80884H1.81503V6.5631H3.94231Z" fill="#F3BA2F"/>
<path d="M9.19482 0.121094H10.9491V8.12613H9.19482V0.121094Z" fill="#F3BA2F"/>
<path d="M13.6406 0.121094H15.2638L19.0143 5.06123V0.121094H20.7585V8.12613H19.2663L15.3243 3.05493V8.12613H13.6406V0.121094Z" fill="#F3BA2F"/>
<path d="M26.082 0.0605469H27.7052L31.1431 8.12608H29.3284L28.5823 6.31134H25.2048L24.4588 8.12608H22.644L26.082 0.0605469ZM27.9572 4.80913L26.8986 2.18783L25.84 4.80913H27.9572Z" fill="#F3BA2F"/>
<path d="M33.0181 0.121094H34.6413L38.3917 5.06123V0.121094H40.146V8.12613H38.6438L34.7622 3.05493V8.12613H33.0181V0.121094Z" fill="#F3BA2F"/>
<path d="M46.5185 8.24701C45.9539 8.24701 45.3894 8.12603 44.8953 7.93447C43.8972 7.50095 43.1411 6.7448 42.7076 5.74669C42.516 5.2426 42.395 4.68809 42.395 4.1235C42.395 3.0649 42.8285 1.99622 43.5847 1.18967C43.9577 0.816637 44.4013 0.504096 44.8953 0.31254C45.4599 0.0604921 46.0245 0 46.579 0C46.8916 0 47.2646 6.12948e-07 47.5771 0.0604921C47.8897 0.120984 48.1417 0.181475 48.3938 0.31254C48.6458 0.433523 48.8979 0.564589 49.0793 0.685572C49.2709 0.806555 49.5129 0.998112 49.7044 1.18967L48.6458 2.50032C48.3333 2.24827 48.0207 1.99622 47.7082 1.81474C47.3957 1.63327 47.0226 1.5627 46.6496 1.5627C46.3371 1.5627 46.0245 1.62319 45.712 1.75425C45.3994 1.87524 45.1474 2.06679 44.9659 2.31884C44.7844 2.57089 44.5929 2.82294 44.4618 3.13548C44.3408 3.44802 44.2703 3.76055 44.2703 4.07309C44.2703 4.38563 44.3307 4.75867 44.4618 5.07121C44.5929 5.38375 44.7139 5.63579 44.9659 5.88784C45.3994 6.39193 46.0245 6.6339 46.6496 6.6339C47.0226 6.6339 47.4662 6.57341 47.8393 6.38186C48.1518 6.1903 48.5248 5.94833 48.7769 5.69628L49.896 6.81538C49.7044 7.00693 49.4624 7.2489 49.2709 7.44046C49.0188 7.63201 48.7668 7.75299 48.5248 7.87398C48.2728 7.99496 47.9602 8.12603 47.6477 8.18652C47.2041 8.24701 46.8311 8.24701 46.5185 8.24701Z" fill="#F3BA2F"/>
<path d="M51.9014 0.121094H57.9001V1.68379H53.585V3.30698H57.396V4.86968H53.585V6.56344H57.9606V8.12613H51.9014V0.121094Z" fill="#F3BA2F"/>
<path d="M2.37933 15.9999C1.94581 15.9999 1.5022 15.9394 1.12917 15.7479C0.756142 15.6269 0.383113 15.3749 0 15.0623L0.625077 14.3767C0.877125 14.6288 1.12917 14.7498 1.44171 14.9413C1.75425 15.0623 2.06679 15.1329 2.37933 15.1329C2.63138 15.1329 2.88343 15.0724 3.12539 14.9413C3.31695 14.8204 3.37744 14.6288 3.37744 14.4372C3.37744 14.3768 3.37744 14.2457 3.31695 14.1852C3.25646 14.1247 3.19597 13.9936 3.12539 13.9331C3.00441 13.8727 2.87335 13.8122 2.75236 13.7416C2.56081 13.6811 2.31884 13.6206 2.12729 13.55C1.87524 13.4895 1.5627 13.429 1.31065 13.298C1.11909 13.2375 0.877126 13.1064 0.746061 12.9854C0.625078 12.8645 0.494012 12.7334 0.373029 12.5519C0.252046 12.2999 0.252048 12.0478 0.252048 11.8664C0.252048 11.6143 0.312538 11.4328 0.373029 11.1808C0.433521 10.9892 0.625078 10.8078 0.746061 10.6767C0.937618 10.5557 1.11909 10.4246 1.37114 10.3641C1.62319 10.3037 1.87524 10.2432 2.1172 10.2432C2.49023 10.2432 2.86326 10.3037 3.24638 10.4347C3.55892 10.5557 3.87146 10.7473 4.184 10.9388L3.6799 11.6849C3.42785 11.4933 3.1758 11.3723 2.93384 11.2514C2.68179 11.1304 2.42974 11.1304 2.18777 11.1304C1.93573 11.1304 1.68368 11.1909 1.50221 11.3219C1.38122 11.4429 1.25016 11.6345 1.25016 11.826C1.25016 11.947 1.25016 12.0176 1.31065 12.1386C1.37114 12.1991 1.43163 12.3301 1.50221 12.3906C1.62319 12.4511 1.75425 12.5116 1.93573 12.5822C2.12728 12.6427 2.30876 12.7032 2.6213 12.7737C2.87335 12.8342 3.1254 12.8947 3.43793 13.0258C3.62949 13.0863 3.81096 13.2173 4.00252 13.3383C4.1235 13.4593 4.25457 13.6509 4.31506 13.7718C4.37555 13.9634 4.43604 14.1449 4.43604 14.3969C4.43604 14.649 4.37555 14.901 4.31506 15.0825C4.19408 15.274 4.06301 15.4555 3.88154 15.6471C3.68998 15.7681 3.50851 15.8991 3.25646 15.9596C2.94392 15.9394 2.63138 15.9999 2.37933 15.9999Z" fill="#F3BA2F"/>
<path d="M5.50488 10.3135H6.57356L8.25724 12.9348L10.0115 10.3135H11.0701V15.9392H10.072V11.8762L8.31774 14.4975H8.25724L6.51307 11.8762V15.9392H5.50488V10.3135Z" fill="#F3BA2F"/>
<path d="M14.4473 10.2539H15.3849L17.8248 15.8796H16.7662L16.2016 14.5085H13.5803L13.0157 15.8796H12.0176L14.4473 10.2539ZM15.889 13.6918L14.8909 11.4436L13.9533 13.6918H15.889Z" fill="#F3BA2F"/>
<path d="M18.8232 10.3135H21.3235C21.636 10.3135 21.9486 10.374 22.2611 10.4345C22.5132 10.4949 22.7652 10.6865 22.9467 10.868C23.0677 10.989 23.1987 11.1805 23.3197 11.4326C23.3802 11.6241 23.4407 11.8661 23.4407 12.1181C23.4407 12.3097 23.3802 12.5517 23.3197 12.7432C23.2592 12.9348 23.1282 13.0558 23.0677 13.2473C22.9467 13.3683 22.8156 13.4994 22.6341 13.6203C22.4426 13.7413 22.2611 13.8119 22.0696 13.8724L23.5718 15.9997H22.3821L21.011 14.0639H19.7608V15.9997H18.7627L18.8232 10.3135ZM21.263 13.0658C21.5755 13.0658 21.8881 13.0053 22.0796 12.8138C22.2712 12.6222 22.3922 12.3803 22.3922 12.1282C22.3922 11.8762 22.2712 11.6241 22.0796 11.4426C21.8276 11.2511 21.5151 11.1906 21.2025 11.1906H19.7608V13.0658H21.263Z" fill="#F3BA2F"/>
<path d="M26.011 11.1906H24.1963V10.3135H28.7634V11.1906H26.9487V15.9392H25.9505L26.011 11.1906Z" fill="#F3BA2F"/>
<path d="M34.8328 16.0002C34.4598 16.0002 34.0867 15.9397 33.7036 15.7482C33.0181 15.4356 32.4535 14.9315 32.2014 14.2459C32.0804 13.8729 31.9494 13.4999 32.0099 13.1168C32.0099 12.7437 32.0704 12.3707 32.2014 11.9876C32.4535 11.302 33.0181 10.7374 33.7036 10.4249C34.0767 10.3039 34.4497 10.1729 34.8933 10.1729C35.1453 10.1729 35.3974 10.1729 35.5789 10.2333C35.7704 10.2938 35.9519 10.3543 36.1435 10.4249C36.335 10.4854 36.456 10.6165 36.6476 10.6769C36.7685 10.7979 36.9601 10.929 37.0811 11.05L36.456 11.796C36.2644 11.6045 36.0225 11.423 35.7704 11.2919C35.5184 11.171 35.2058 11.1004 34.8933 11.1004C34.6413 11.1004 34.3892 11.1609 34.1472 11.2214C33.8952 11.3424 33.7137 11.4734 33.5222 11.6549C33.3306 11.8465 33.2096 12.0279 33.1491 12.28C33.0886 12.532 33.0281 12.7841 33.0281 13.026C33.0281 13.2781 33.0886 13.5301 33.1491 13.7721C33.2096 14.0141 33.3407 14.2056 33.5222 14.3972C33.7137 14.5887 33.8952 14.7097 34.1472 14.8307C34.3993 14.9517 34.6513 15.0223 34.8933 14.9517C35.2058 14.9517 35.5184 14.8912 35.7704 14.7601C36.0225 14.6391 36.2745 14.4476 36.5165 14.1955L37.1416 14.8206C37.0206 14.9416 36.829 15.1332 36.708 15.2541C36.5165 15.3751 36.3955 15.5062 36.2039 15.5667C36.0124 15.6272 35.8309 15.7582 35.5789 15.7582C35.3268 16.0002 35.0748 16.0002 34.8328 16.0002Z" fill="#F3BA2F"/>
<path d="M38.1401 10.3135H39.0778V12.6222H41.7696V10.3135H42.7677V15.9392H41.7696V13.5599H39.0778V15.9392H38.1401V10.3135Z" fill="#F3BA2F"/>
<path d="M46.2051 10.2539H47.1428L49.5826 15.8796H48.524L47.9594 14.5085H45.3381L44.7735 15.8796H43.7754L46.2051 10.2539ZM47.5864 13.6918L46.6487 11.4436L45.7111 13.6918H47.5864Z" fill="#F3BA2F"/>
<path d="M50.5811 10.3135H51.5892V15.9392H50.5811V10.3135Z" fill="#F3BA2F"/>
<path d="M53.0811 10.3135H53.9582L56.9626 14.1849V10.3135H57.9607V15.9392H57.1441L54.0892 11.9367V15.9392H53.0811V10.3135Z" fill="#F3BA2F"/>
</svg>
