<svg width="89" height="123" viewBox="0 0 89 123" fill="none" xmlns="http://www.w3.org/2000/svg">
<circle cx="27.5" cy="61.5" r="61.5" fill="url(#paint0_linear_18_172)"/>
<rect x="-0.396973" y="61.3838" width="39.3102" height="39.3102" transform="rotate(-45 -0.396973 61.3838)" fill="#0B0E11"/>
<mask id="path-3-inside-1_18_172" fill="white">
<path d="M50.6566 97.1127C45.4489 100.499 39.5619 102.702 33.4106 103.566C27.2592 104.431 20.9931 103.935 15.0539 102.115C9.11467 100.295 3.64689 97.1948 -0.96414 93.0325C-5.57517 88.8702 -9.21723 83.7472 -11.6336 78.0247C-14.0501 72.3021 -15.182 66.1193 -14.9498 59.9118C-14.7175 53.7043 -13.1267 47.6234 -10.2895 42.0974C-7.45219 36.5714 -3.43751 31.7349 1.47165 27.9288C6.38081 24.1226 12.065 21.4395 18.1236 20.0684L18.3357 21.0056C12.4141 22.3457 6.85853 24.9681 2.06042 28.6882C-2.73769 32.4082 -5.39068 38.0295 -8.16377 43.4304C-10.9369 48.8314 -12.4434 53.4163 -13.0774 59.9118C-13.0774 66.4137 -13.1102 72.0578 -10.7484 77.6509C-8.38667 83.244 -4.827 88.251 -0.320273 92.3192C4.18645 96.3874 9.53055 99.4177 15.3354 101.196C21.1403 102.975 27.2646 103.459 33.2769 102.615C39.2891 101.77 45.0429 99.6168 50.1328 96.3072L50.6566 97.1127Z"/>
</mask>
<path d="M50.6566 97.1127L53.3822 101.304L57.574 98.5788L54.8484 94.3871L50.6566 97.1127ZM18.1236 20.0684L23.0003 18.9647L21.8966 14.088L17.0199 15.1917L18.1236 20.0684ZM18.3357 21.0056L19.4393 25.8822L24.316 24.7786L23.2124 19.9019L18.3357 21.0056ZM-13.0774 59.9118L-18.0538 59.4261L-18.0774 59.6684V59.9118H-13.0774ZM50.1328 96.3072L54.3245 93.5815L51.5989 89.3898L47.4071 92.1154L50.1328 96.3072ZM47.931 92.921C43.3362 95.9086 38.1422 97.8522 32.7148 98.6148L34.1063 108.518C40.9817 107.551 47.5616 105.089 53.3822 101.304L47.931 92.921ZM32.7148 98.6148C27.2875 99.3774 21.759 98.9404 16.5188 97.3346L13.5889 106.896C20.2272 108.93 27.2308 109.484 34.1063 108.518L32.7148 98.6148ZM16.5188 97.3346C11.2787 95.7289 6.45449 92.9934 2.38619 89.321L-4.31448 96.744C0.839286 101.396 6.95065 104.862 13.5889 106.896L16.5188 97.3346ZM2.38619 89.321C-1.6821 85.6486 -4.89547 81.1286 -7.02746 76.0797L-16.2398 79.9697C-13.539 86.3658 -9.46824 92.0917 -4.31448 96.744L2.38619 89.321ZM-7.02746 76.0797C-9.15946 71.0307 -10.1582 65.5756 -9.95329 60.0987L-19.9463 59.7249C-20.2059 66.663 -18.9407 73.5736 -16.2398 79.9697L-7.02746 76.0797ZM-9.95329 60.0987C-9.74838 54.6219 -8.34481 49.2567 -5.84149 44.3811L-14.7374 39.8136C-17.9087 45.99 -19.6867 52.7868 -19.9463 59.7249L-9.95329 60.0987ZM-5.84149 44.3811C-3.33818 39.5056 0.203953 35.2384 4.53528 31.8803L-1.59198 23.9773C-7.07897 28.2314 -11.5662 33.6372 -14.7374 39.8136L-5.84149 44.3811ZM4.53528 31.8803C8.86662 28.5221 13.8817 26.1548 19.2272 24.945L17.0199 15.1917C10.2482 16.7242 3.89501 19.7232 -1.59198 23.9773L4.53528 31.8803ZM13.2469 21.172L13.459 22.1092L23.2124 19.9019L23.0003 18.9647L13.2469 21.172ZM17.232 16.1289C10.5974 17.6304 4.37273 20.5687 -1.00321 24.7367L5.12405 32.6396C9.34434 29.3676 14.2309 27.0609 19.4393 25.8822L17.232 16.1289ZM-1.00321 24.7367C-6.87131 29.2863 -10.0224 36.1035 -12.6117 41.1467L-3.71581 45.7142C-0.758981 39.9554 1.39593 35.5301 5.12405 32.6396L-1.00321 24.7367ZM-12.6117 41.1467C-15.6409 47.0464 -17.3521 52.2375 -18.0538 59.4261L-8.10108 60.3975C-7.53471 54.5951 -6.23283 50.6165 -3.71581 45.7142L-12.6117 41.1467ZM-18.0774 59.9118C-18.0774 66.2158 -18.1776 72.9104 -15.3546 79.5959L-6.14225 75.7059C-8.04274 71.2051 -8.07743 66.6116 -8.07743 59.9118H-18.0774ZM-15.3546 79.5959C-12.7084 85.8626 -8.72007 91.4726 -3.67061 96.0307L3.03006 88.6077C-0.933926 85.0295 -4.06491 80.6254 -6.14225 75.7059L-15.3546 79.5959ZM-3.67061 96.0307C1.37885 100.589 7.36654 103.984 13.8705 105.977L16.8004 96.4159C11.6946 94.8513 6.99405 92.186 3.03006 88.6077L-3.67061 96.0307ZM13.8705 105.977C20.3744 107.97 27.2363 108.512 33.9726 107.566L32.5811 97.6633C27.293 98.4063 21.9062 97.9805 16.8004 96.4159L13.8705 105.977ZM33.9726 107.566C40.7088 106.619 47.1556 104.207 52.8584 100.499L47.4071 92.1154C42.9302 95.0265 37.8693 96.9202 32.5811 97.6633L33.9726 107.566ZM45.941 99.0328L46.4648 99.8384L54.8484 94.3871L54.3245 93.5815L45.941 99.0328Z" fill="url(#paint1_linear_18_172)" mask="url(#path-3-inside-1_18_172)"/>
<defs>
<linearGradient id="paint0_linear_18_172" x1="69.0283" y1="17.5941" x2="-9.4317" y2="109.844" gradientUnits="userSpaceOnUse">
<stop stop-color="#1B1F22"/>
<stop offset="1" stop-color="#171B20"/>
</linearGradient>
<linearGradient id="paint1_linear_18_172" x1="23.5373" y1="51.1972" x2="-5.31068" y2="84.9588" gradientUnits="userSpaceOnUse">
<stop stop-color="#1B1F22" stop-opacity="0"/>
<stop offset="1" stop-color="#1B2022"/>
</linearGradient>
</defs>
</svg>
