<svg width="35" height="31" viewBox="0 0 35 31" fill="none" xmlns="http://www.w3.org/2000/svg">
<path d="M14.4617 17.4087V23.2678L17.3912 24.9156V12.0147L12.2297 9.17822L9.34668 10.8057V14.3397L14.4617 17.4087Z" fill="#EFB90B"/>
<path d="M17.4377 24.9418L17.3912 24.9156M17.3912 24.9156L14.4617 23.2678V17.4087L9.34668 14.3397V10.8057L12.2297 9.17822L17.3912 12.0147V24.9156Z" stroke="#EFB90B"/>
<path d="M20.3674 17.4087V23.2678L17.4379 24.9156V12.0147L22.5994 9.17822L25.4824 10.8057V14.3397L20.3674 17.4087Z" fill="#EFB90B"/>
<path d="M17.3914 24.9418L17.4379 24.9156M17.4379 24.9156L20.3674 23.2678V17.4087L25.4824 14.3397V10.8057L22.5994 9.17822L17.4379 12.0147V24.9156Z" stroke="#EFB90B"/>
<path d="M9.34668 4.94629L17.3912 0.110273L17.4842 3.69078L12.4517 6.7299L9.34668 4.94629Z" fill="#EFB90B"/>
<path d="M25.48 4.94629L17.3912 0.110273L17.3425 3.69078L22.375 6.7299L25.48 4.94629Z" fill="#EFB90B"/>
<path d="M30.6084 13.981L30.7742 23.3657L27.6269 21.656L27.5113 15.7781L30.6084 13.981Z" fill="#EFB90B"/>
<path d="M22.5415 27.9531L30.774 23.366L27.6976 21.5336L22.5493 24.3723L22.5415 27.9531Z" fill="#EFB90B"/>
<path d="M4.28369 13.9814L4.11784 23.3662L7.26516 21.6565L7.38083 15.7786L4.28369 13.9814Z" fill="#EFB90B"/>
<path d="M12.3501 27.9536L4.11758 23.3665L7.19404 21.5341L12.3423 24.3728L12.3501 27.9536Z" fill="#EFB90B"/>
<path d="M4.18567 11.3163L4.15785 7.82286L7.25458 9.54929L7.06858 12.8973L4.18567 11.3163Z" fill="#EFB90B"/>
<path d="M7.16173 6.15442L4.13881 7.82838L7.25473 9.54893L10.0912 7.89101L7.16173 6.15442Z" fill="#EFB90B"/>
<path d="M30.682 11.3163L30.7098 7.82286L27.6131 9.54929L27.7991 12.8973L30.682 11.3163Z" fill="#EFB90B"/>
<path d="M27.7059 6.15442L30.7289 7.82838L27.6129 9.54893L24.7764 7.89101L27.7059 6.15442Z" fill="#EFB90B"/>
<path d="M14.4362 29.1673L17.4478 30.9381L17.501 27.393L14.5085 25.8801L14.4362 29.1673Z" fill="#EFB90B"/>
<path d="M20.3947 29.1702L17.4335 30.9511L17.5015 27.3924L20.3555 25.7649L20.3947 29.1702Z" fill="#EFB90B"/>
<path d="M14.3687 7.87598L17.4474 5.94545L20.5067 7.87598L17.4872 9.60848L14.3687 7.87598Z" fill="#EFB90B"/>
<path d="M9.21436 16.8037L12.4256 18.5047L12.2834 22.1194L9.27321 20.3707L9.21436 16.8037Z" fill="#EFB90B"/>
<path d="M25.7686 16.6177L22.5573 18.3186L22.6995 21.9334L25.7097 20.1846L25.7686 16.6177Z" fill="#EFB90B"/>
</svg>
